<svg width="32" height="32" viewBox="0 0 32 32" fill="none" xmlns="http://www.w3.org/2000/svg">
<g id="material-symbols:add-a-photo-outline">
<path id="Vector" d="M25.3335 10.6665V7.99984H22.6668V5.33317H25.3335V2.6665H28.0002V5.33317H30.6668V7.99984H28.0002V10.6665H25.3335ZM4.00016 29.3332C3.26683 29.3332 2.63927 29.0723 2.1175 28.5505C1.59483 28.0278 1.3335 27.3998 1.3335 26.6665V10.6665C1.3335 9.93317 1.59483 9.30561 2.1175 8.78384C2.63927 8.26117 3.26683 7.99984 4.00016 7.99984H8.20016L10.6668 5.33317H18.6668V7.99984H11.8335L9.40016 10.6665H4.00016V26.6665H25.3335V14.6665H28.0002V26.6665C28.0002 27.3998 27.7393 28.0278 27.2175 28.5505C26.6948 29.0723 26.0668 29.3332 25.3335 29.3332H4.00016ZM14.6668 24.6665C16.3335 24.6665 17.7504 24.0834 18.9175 22.9172C20.0837 21.7501 20.6668 20.3332 20.6668 18.6665C20.6668 16.9998 20.0837 15.5829 18.9175 14.4158C17.7504 13.2496 16.3335 12.6665 14.6668 12.6665C13.0002 12.6665 11.5833 13.2496 10.4162 14.4158C9.24994 15.5829 8.66683 16.9998 8.66683 18.6665C8.66683 20.3332 9.24994 21.7501 10.4162 22.9172C11.5833 24.0834 13.0002 24.6665 14.6668 24.6665ZM14.6668 21.9998C13.7335 21.9998 12.9446 21.6776 12.3002 21.0332C11.6557 20.3887 11.3335 19.5998 11.3335 18.6665C11.3335 17.7332 11.6557 16.9443 12.3002 16.2998C12.9446 15.6554 13.7335 15.3332 14.6668 15.3332C15.6002 15.3332 16.3891 15.6554 17.0335 16.2998C17.6779 16.9443 18.0002 17.7332 18.0002 18.6665C18.0002 19.5998 17.6779 20.3887 17.0335 21.0332C16.3891 21.6776 15.6002 21.9998 14.6668 21.9998Z" fill="black" fill-opacity="0.75"/>
</g>
</svg>
